<svg width="30" height="30" viewBox="0 0 30 30" fill="none" xmlns="http://www.w3.org/2000/svg">
<path d="M12 7V22C12 22.663 12.2634 23.2989 12.7322 23.7678C13.2011 24.2366 13.837 24.5 14.5 24.5H24.5C25.163 24.5 25.7989 24.2366 26.2678 23.7678C26.7366 23.2989 27 22.663 27 22V11.0525C27 10.7194 26.9334 10.3898 26.8041 10.0828C26.6749 9.77585 26.4857 9.4978 26.2475 9.265L22.1038 5.2125C21.6367 4.75582 21.0095 4.50008 20.3563 4.5H14.5C13.837 4.5 13.2011 4.76339 12.7322 5.23223C12.2634 5.70107 12 6.33696 12 7V7Z" stroke="#414141" stroke-width="2" stroke-linecap="round" stroke-linejoin="round"/>
<path d="M20 22.5V25C20 25.663 19.7366 26.2989 19.2678 26.7678C18.7989 27.2366 18.163 27.5 17.5 27.5H7.5C6.83696 27.5 6.20107 27.2366 5.73223 26.7678C5.26339 26.2989 5 25.663 5 25V11.25C5 10.587 5.26339 9.95107 5.73223 9.48223C6.20107 9.01339 6.83696 8.75 7.5 8.75H10" stroke="#414141" stroke-width="2" stroke-linecap="round" stroke-linejoin="round"/>
</svg>
